<?xml version="1.0" standalone="no"?>
<!DOCTYPE svg PUBLIC "-//W3C//DTD SVG 20010904//EN"
 "http://www.w3.org/TR/2001/REC-SVG-20010904/DTD/svg10.dtd">
<svg version="1.0" xmlns="http://www.w3.org/2000/svg"
 width="1436.000000pt" height="268.000000pt" viewBox="0 0 1436.000000 268.000000"
 preserveAspectRatio="xMidYMid meet">

<g transform="translate(0.000000,268.000000) scale(0.100000,-0.100000)"
fill="#000000" stroke="none">
<path d="M0 2180 l0 -80 85 0 85 0 0 80 0 80 -85 0 -85 0 0 -80z"/>
<path d="M270 2130 l0 -130 -135 0 -135 0 0 -50 0 -50 185 0 185 0 0 180 0
180 -50 0 -50 0 0 -130z"/>
<path d="M470 2230 c0 -29 1 -30 50 -30 l50 0 0 -50 0 -50 -50 0 -50 0 0 -101
0 -100 48 3 47 3 3 47 3 47 47 3 47 3 3 97 3 97 47 3 c43 3 47 5 50 31 l3 27
-150 0 -151 0 0 -30z"/>
<path d="M970 2230 c0 -29 1 -30 50 -30 l50 0 0 -150 0 -150 50 0 50 0 0 50 0
50 50 0 50 0 0 -101 0 -100 48 3 47 3 3 198 2 198 -47 -3 -48 -3 -3 -47 -3
-48 -50 0 -49 0 0 49 0 50 48 3 c43 3 47 5 50 31 l3 27 -150 0 -151 0 0 -30z"/>
<path d="M1470 2080 l0 -180 175 0 175 0 0 -50 c0 -47 -2 -50 -25 -50 -23 0
-25 -3 -25 -50 0 -47 2 -50 25 -50 23 0 25 -3 25 -50 l0 -50 -75 0 -75 0 0
100 0 100 -50 0 -50 0 0 -100 0 -100 -50 0 -50 0 0 101 0 100 -47 -3 -48 -3
-3 -47 -3 -48 -50 0 -49 0 0 -50 0 -50 -100 0 -100 0 0 -100 0 -100 -99 0
-100 0 -3 48 -3 47 -45 0 -45 0 -3 -47 -3 -48 -100 0 -99 0 0 -50 0 -50 -50 0
-50 0 0 -50 0 -50 50 0 50 0 0 50 0 50 99 0 100 0 3 -47 3 -48 95 0 95 0 3 47
3 47 147 3 147 3 3 48 3 47 -50 0 -51 0 0 50 0 50 100 0 100 0 0 -51 0 -50 48
3 47 3 3 48 3 47 50 0 49 0 0 -49 0 -50 -47 -3 -48 -3 -3 -47 -3 -48 50 0 51
0 0 -135 0 -135 50 0 50 0 0 35 0 35 50 0 50 0 0 -35 0 -36 343 3 342 3 57 28
c67 33 121 90 157 166 22 47 26 70 26 146 0 81 -3 95 -30 144 -34 61 -80 103
-142 128 -24 10 -42 21 -40 24 1 4 22 22 46 40 24 19 58 59 75 89 28 50 31 63
31 140 0 100 -21 154 -86 219 -90 90 -153 101 -566 101 l-313 0 0 -80 0 -80
75 0 75 0 0 -50 0 -50 -125 0 -125 0 0 130 0 130 -50 0 -50 0 0 -180z m832
-41 c21 -5 50 -20 65 -33 23 -20 27 -33 31 -88 4 -61 2 -67 -27 -100 -43 -49
-88 -58 -290 -58 l-171 0 0 145 0 145 178 0 c97 0 194 -5 214 -11z m67 -519
c123 -69 102 -242 -34 -279 -22 -6 -125 -11 -232 -11 l-193 0 0 161 0 161 208
-4 c198 -3 209 -5 251 -28z m-549 -119 c0 -96 -1 -100 -22 -103 -20 -3 -23
-10 -26 -50 l-3 -48 -50 0 -49 0 0 49 0 50 48 3 47 3 3 48 3 47 -50 0 -51 0 0
50 0 50 75 0 75 0 0 -99z"/>
<path d="M7157 2253 c-4 -3 -7 -103 -7 -220 l0 -215 -42 36 c-91 78 -202 104
-312 72 -72 -21 -120 -51 -168 -104 -78 -86 -109 -185 -109 -347 0 -171 32
-265 124 -362 73 -77 141 -108 242 -108 97 0 167 28 239 97 l46 45 0 -64 0
-63 110 0 110 0 0 620 0 620 -113 0 c-63 0 -117 -3 -120 -7z m-117 -515 c78
-40 111 -113 114 -253 2 -110 -10 -165 -45 -218 -75 -114 -236 -115 -308 -2
-69 108 -66 330 6 423 52 69 153 90 233 50z"/>
<path d="M11116 2229 c-65 -4 -123 -12 -129 -18 -19 -19 1 -41 38 -41 39 0 85
-36 85 -65 0 -9 -54 -248 -120 -532 -66 -284 -120 -522 -120 -529 0 -11 18
-14 70 -14 39 0 70 2 70 5 0 4 29 133 65 288 l65 282 45 41 c88 82 192 108
240 60 45 -45 43 -79 -19 -317 -31 -120 -56 -234 -56 -253 0 -76 42 -116 124
-116 50 0 174 41 187 62 19 29 9 34 -50 30 -122 -9 -127 14 -62 269 63 247 69
286 47 344 -27 69 -64 90 -156 89 -82 0 -127 -18 -224 -88 -28 -19 -51 -34
-52 -33 -1 1 24 115 57 252 32 138 58 260 59 273 0 17 -5 22 -22 21 -13 -1
-77 -6 -142 -10z"/>
<path d="M777 2193 c-4 -3 -7 -26 -7 -50 l0 -44 48 3 47 3 3 48 3 47 -44 0
c-24 0 -47 -3 -50 -7z"/>
<path d="M8491 1999 c-17 -72 -31 -137 -31 -145 0 -8 10 -14 24 -14 18 0 32
13 56 49 45 71 160 176 200 184 18 4 64 7 102 7 61 0 69 -2 64 -17 -2 -10 -50
-216 -106 -458 -56 -242 -108 -450 -116 -462 -19 -31 -59 -49 -124 -57 -30 -4
-58 -13 -62 -19 -23 -36 -13 -37 252 -37 151 0 260 4 260 9 0 5 2 16 6 24 4
10 -10 17 -55 27 -75 16 -93 29 -95 66 0 16 47 230 104 477 l104 447 81 0
c102 0 141 -18 173 -81 13 -25 26 -71 29 -102 5 -54 7 -57 33 -57 26 0 27 3
58 138 18 75 32 140 32 145 0 4 -216 7 -479 7 l-479 0 -31 -131z"/>
<path d="M877 2093 c-4 -3 -7 -48 -7 -100 l0 -93 -50 0 -50 0 0 51 0 50 -47
-3 -48 -3 -3 -47 -3 -47 -47 -3 -47 -3 -3 -47 -3 -48 -150 0 -149 0 0 -50 0
-50 198 2 197 3 3 48 3 47 99 0 99 0 3 -47 3 -48 148 -3 147 -3 0 51 0 50
-100 0 -100 0 0 150 0 150 -43 0 c-24 0 -47 -3 -50 -7z"/>
<path d="M3130 1927 c-112 -27 -180 -82 -228 -185 -13 -29 -22 -55 -20 -57 4
-5 201 -35 203 -32 49 85 83 107 169 107 104 0 160 -42 154 -117 l-3 -38 -120
-29 c-240 -57 -277 -69 -323 -101 -129 -88 -142 -286 -26 -397 50 -47 100 -68
183 -75 101 -8 179 17 273 90 28 21 39 25 42 15 3 -7 10 -30 16 -50 l12 -38
112 0 113 0 -23 68 c-22 63 -24 83 -24 317 0 261 -9 360 -38 410 -21 36 -99
90 -150 105 -59 17 -259 22 -322 7z m280 -557 c0 -42 -6 -82 -14 -98 -73 -140
-306 -132 -306 11 0 44 30 82 76 97 30 10 206 54 237 59 4 0 7 -31 7 -69z"/>
<path d="M4223 1930 c-19 -6 -54 -36 -87 -73 l-56 -62 0 63 0 62 -105 0 -105
0 0 -450 0 -450 115 0 115 0 0 233 c0 253 10 347 40 406 32 64 111 88 187 56
20 -8 38 -13 40 -11 6 6 73 190 70 192 -43 34 -156 51 -214 34z"/>
<path d="M4803 1925 c-200 -56 -306 -215 -306 -455 0 -304 180 -485 463 -467
164 10 268 76 335 209 44 89 45 105 3 112 -81 14 -182 24 -189 21 -4 -3 -10
-21 -13 -40 -9 -46 -57 -101 -103 -116 -47 -15 -128 -6 -161 18 -70 52 -95
125 -96 278 0 98 3 116 26 166 41 89 138 130 232 99 41 -13 85 -61 93 -101 3
-16 8 -29 12 -29 20 1 215 31 218 33 2 2 -3 22 -11 44 -35 99 -111 178 -205
214 -74 28 -225 35 -298 14z"/>
<path d="M5793 1925 c-211 -59 -335 -223 -336 -445 -2 -205 80 -351 238 -426
200 -96 407 -63 550 87 71 74 113 163 124 260 27 241 -80 431 -288 510 -73 28
-215 35 -288 14z m189 -175 c20 -6 54 -29 76 -51 54 -53 76 -120 76 -229 0
-109 -22 -176 -76 -229 -103 -104 -263 -73 -333 64 -28 54 -30 66 -30 164 0
96 3 111 28 164 52 105 146 148 259 117z"/>
<path d="M7859 1926 c-108 -29 -221 -130 -259 -233 -58 -155 -54 -334 9 -469
38 -80 87 -134 158 -171 171 -90 391 -64 515 61 43 44 97 140 86 152 -5 4
-180 31 -218 34 -4 0 -12 -16 -19 -35 -22 -63 -100 -97 -186 -81 -70 14 -144
107 -145 184 l0 32 289 0 c267 0 290 -1 295 -17 10 -33 -5 192 -16 237 -28
116 -95 213 -183 264 -88 52 -225 70 -326 42z m206 -189 c46 -26 81 -82 91
-145 l7 -42 -182 0 -181 0 0 23 c0 142 146 232 265 164z"/>
<path d="M9752 1810 c-113 -24 -233 -123 -293 -241 -46 -91 -59 -150 -59 -264
0 -110 17 -165 68 -218 52 -55 97 -71 202 -72 91 0 100 2 172 38 55 27 92 54
133 99 l57 61 -23 18 c-22 16 -23 16 -71 -37 -69 -75 -139 -108 -218 -102 -39
3 -70 11 -88 25 -43 31 -74 97 -79 168 l-6 63 74 11 c101 16 240 56 297 85 52
26 117 91 132 132 6 14 10 49 10 78 0 64 -27 110 -82 138 -43 23 -161 32 -226
18z m150 -70 c23 -28 24 -107 3 -158 -23 -54 -82 -109 -141 -131 -56 -22 -204
-54 -211 -47 -8 8 27 128 53 180 39 77 88 131 146 161 63 31 122 29 150 -5z"/>
<path d="M10472 1804 c-146 -39 -262 -166 -307 -334 -8 -31 -15 -99 -15 -155
0 -85 4 -108 25 -153 27 -59 61 -94 120 -125 32 -17 58 -21 135 -22 84 0 101
3 152 28 63 31 155 109 177 151 13 24 13 28 -4 40 -17 12 -24 8 -69 -42 -108
-117 -250 -136 -329 -43 -101 121 -58 434 77 559 68 63 169 78 210 33 15 -16
14 -23 -4 -76 -11 -32 -20 -69 -20 -82 0 -36 34 -63 80 -63 63 0 100 49 100
131 0 131 -151 201 -328 153z"/>
<path d="M0 1700 l0 -100 35 0 35 0 0 -50 0 -50 150 0 150 0 0 50 0 50 -150 0
-150 0 0 50 0 50 50 0 50 0 0 50 0 50 -85 0 -85 0 0 -100z"/>
<path d="M677 1694 c-4 -4 -7 -50 -7 -101 l0 -94 48 3 47 3 3 47 3 47 47 3 47
3 0 45 0 45 -90 3 c-50 1 -94 0 -98 -4z"/>
<path d="M874 1586 c-3 -8 -4 -29 -2 -48 3 -32 5 -33 51 -36 l47 -3 0 50 0 51
-45 0 c-30 0 -47 -5 -51 -14z"/>
<path d="M270 1350 l0 -50 -135 0 -135 0 0 -50 0 -50 34 0 c34 0 35 -1 38 -47
l3 -48 48 -3 c46 -3 47 -4 47 -38 l0 -34 50 0 50 0 0 35 0 35 50 0 50 0 0 50
0 50 -50 0 -50 0 0 50 0 50 50 0 50 0 0 50 0 50 -50 0 -50 0 0 -50z"/>
<path d="M1274 1286 c-3 -8 -4 -29 -2 -48 3 -32 5 -33 51 -36 l47 -3 0 -50 0
-49 50 0 50 0 0 50 0 50 -50 0 -50 0 0 50 0 50 -45 0 c-30 0 -47 -5 -51 -14z"/>
<path d="M670 1116 l0 -86 50 0 51 0 -3 83 -3 82 -47 3 -48 3 0 -85z"/>
<path d="M977 1193 c-4 -3 -7 -26 -7 -50 l0 -44 48 3 47 3 3 48 3 47 -44 0
c-24 0 -47 -3 -50 -7z"/>
<path d="M1172 1153 l3 -48 48 -3 48 -3 -3 48 -3 48 -48 3 -48 3 3 -48z"/>
<path d="M0 1066 c0 -35 1 -36 36 -36 34 0 35 1 32 33 -3 28 -7 32 -35 35 -32
3 -33 2 -33 -32z"/>
<path d="M470 1065 l0 -35 50 0 50 0 0 35 0 35 -50 0 -50 0 0 -35z"/>
<path d="M1077 1094 c-4 -4 -7 -20 -7 -36 0 -27 2 -28 51 -28 l50 0 -3 33 c-3
30 -6 32 -43 35 -23 2 -44 0 -48 -4z"/>
<path d="M7528 843 c-58 -5 -65 -28 -12 -37 19 -4 38 -14 41 -22 3 -8 -2 -47
-12 -87 -28 -118 -21 -108 -63 -90 -50 21 -119 13 -176 -21 -114 -67 -168
-250 -102 -349 45 -66 108 -74 185 -23 l51 35 6 -25 c11 -45 56 -55 124 -28
49 20 54 42 7 36 -67 -8 -67 0 3 306 35 152 65 285 68 295 5 18 -4 19 -120 10z
m-54 -274 c15 -12 26 -30 26 -44 0 -39 -41 -208 -57 -233 -32 -52 -117 -78
-157 -49 -37 27 -41 130 -10 220 37 106 133 157 198 106z"/>
<path d="M9421 841 c-54 -7 -62 -23 -19 -36 22 -7 34 -17 36 -32 2 -11 -22
-130 -54 -264 -31 -134 -56 -254 -56 -266 0 -58 64 -80 131 -45 48 24 48 37 0
37 -32 0 -43 4 -49 20 -5 13 16 120 56 290 35 149 63 278 63 288 1 18 -20 20
-108 8z"/>
<path d="M10839 798 c-24 -46 -57 -50 -120 -13 -24 14 -54 25 -65 25 -27 0
-70 -34 -89 -70 -20 -39 -3 -46 24 -10 26 37 53 38 106 5 49 -30 84 -32 119
-4 32 25 60 75 46 84 -5 3 -14 -5 -21 -17z"/>
<path d="M8559 787 c-83 -31 -138 -99 -139 -170 0 -72 43 -116 155 -158 33
-12 73 -35 89 -51 25 -26 28 -34 23 -74 -8 -70 -62 -114 -142 -114 -81 0 -126
39 -147 130 -6 27 -17 50 -23 50 -7 0 -19 -36 -29 -87 -10 -49 -19 -96 -22
-105 -7 -22 14 -23 37 -2 16 14 20 14 50 -1 18 -10 58 -20 90 -22 148 -14 268
77 269 204 0 52 -39 101 -102 128 -138 59 -144 62 -158 94 -10 26 -10 40 -1
72 17 56 59 81 129 76 60 -4 98 -32 106 -78 4 -16 9 -42 12 -59 11 -56 31 -33
48 56 10 47 20 92 23 100 7 19 -16 18 -37 -1 -15 -13 -20 -13 -51 2 -44 22
-134 27 -180 10z"/>
<path d="M3790 776 c0 -7 15 -17 33 -22 26 -8 33 -15 35 -39 1 -17 -20 -127
-47 -245 -52 -228 -63 -250 -117 -250 -15 0 -24 -6 -24 -15 0 -21 245 -22 253
-1 4 10 -5 16 -29 21 -19 3 -38 13 -41 22 -3 8 15 106 41 217 69 298 59 273
113 289 89 26 65 37 -81 37 -108 0 -136 -3 -136 -14z"/>
<path d="M4670 670 l-13 -60 -37 0 c-25 0 -40 -5 -44 -16 -9 -24 -9 -24 29
-24 24 0 35 -5 35 -14 0 -8 -14 -72 -30 -143 -17 -70 -31 -143 -32 -162 -2
-63 65 -88 152 -57 46 17 53 45 11 38 -17 -2 -42 -1 -56 2 -21 5 -25 12 -25
45 0 32 34 195 56 274 4 14 17 17 65 17 52 0 59 2 59 20 0 18 -7 20 -56 20
-53 0 -56 1 -51 23 3 12 9 39 12 60 7 37 7 37 -28 37 -34 0 -34 -1 -47 -60z"/>
<path d="M4088 603 c-49 -20 -49 -38 -1 -38 36 0 38 -2 41 -36 2 -29 -41 -247
-64 -322 -5 -16 -1 -18 32 -15 l38 3 37 155 c33 137 40 157 68 182 35 32 70
43 106 34 41 -10 42 -47 6 -186 -37 -146 -37 -154 -11 -180 24 -24 56 -25 110
-4 49 20 54 42 7 36 -62 -7 -65 10 -27 168 28 119 31 144 21 168 -26 62 -96
67 -183 13 l-49 -31 -10 28 c-18 46 -53 54 -121 25z"/>
<path d="M5021 607 c-95 -36 -165 -144 -165 -256 -1 -103 38 -157 121 -168 58
-8 115 12 167 58 25 22 46 45 46 50 0 16 -26 9 -46 -12 -28 -31 -68 -49 -109
-49 -49 0 -74 15 -91 55 -26 64 -22 70 64 88 42 9 97 27 121 39 77 38 104 120
58 174 -19 22 -34 28 -78 30 -30 2 -69 -2 -88 -9z m107 -29 c18 -18 14 -69 -8
-106 -22 -36 -79 -66 -147 -77 l-41 -6 7 33 c21 92 86 168 144 168 18 0 38 -5
45 -12z"/>
<path d="M5425 601 c-150 -68 -214 -298 -109 -390 24 -21 45 -31 67 -31 34 0
110 31 121 49 12 19 26 12 26 -11 -1 -31 -36 -107 -63 -136 -28 -30 -70 -52
-99 -52 -16 0 -29 11 -43 37 -21 40 -47 52 -70 33 -21 -18 -18 -54 5 -75 26
-23 111 -31 168 -15 56 15 115 69 146 133 21 42 120 455 112 464 -1 1 -18 -2
-38 -7 -27 -8 -44 -6 -71 5 -48 20 -103 19 -152 -4z m143 -27 c28 -19 28 -48
0 -181 -20 -96 -25 -107 -56 -131 -49 -37 -117 -37 -145 0 -57 75 7 280 98
318 32 14 79 11 103 -6z"/>
<path d="M5808 603 c-49 -20 -49 -38 -1 -38 36 0 38 -2 41 -36 2 -20 -8 -85
-22 -145 -14 -60 -29 -128 -34 -151 l-10 -43 37 0 36 0 35 158 35 157 49 33
c66 44 78 42 70 -8 -6 -37 -5 -39 21 -46 36 -9 65 23 65 71 0 70 -63 84 -134
30 -53 -40 -66 -43 -66 -16 0 48 -53 63 -122 34z"/>
<path d="M6333 605 c-52 -22 -119 -91 -144 -148 -52 -120 -14 -256 78 -273 43
-8 71 -1 118 32 27 18 41 22 43 14 9 -25 42 -50 67 -50 34 0 105 30 105 44 0
8 -12 11 -33 8 -63 -7 -65 9 -23 191 20 89 36 167 36 174 0 8 -9 9 -32 2 -22
-6 -44 -4 -75 6 -54 18 -98 18 -140 0z m135 -31 c14 -10 22 -26 22 -44 0 -49
-49 -232 -67 -252 -40 -45 -111 -61 -147 -35 -25 18 -36 91 -24 159 24 135
138 227 216 172z"/>
<path d="M6708 603 c-49 -20 -49 -38 -1 -38 36 0 38 -2 41 -36 2 -29 -41 -247
-64 -322 -5 -16 -1 -18 32 -15 l38 3 37 155 c33 137 40 157 68 182 35 32 70
43 106 34 41 -10 42 -47 6 -186 -37 -146 -37 -154 -11 -180 24 -24 56 -25 110
-4 49 20 54 42 7 36 -62 -7 -65 10 -27 168 28 119 31 144 21 168 -26 62 -96
67 -183 13 l-49 -31 -10 28 c-18 46 -53 54 -121 25z"/>
<path d="M7825 597 c-94 -46 -148 -133 -149 -242 -3 -215 265 -238 371 -31 35
68 39 180 7 222 -55 74 -141 93 -229 51z m142 -31 c26 -23 28 -29 27 -103 -1
-150 -62 -253 -152 -253 -71 0 -103 75 -82 191 28 155 127 234 207 165z"/>
<path d="M8995 597 c-94 -46 -148 -133 -149 -242 -3 -215 265 -238 371 -31 35
68 39 180 7 222 -55 74 -141 93 -229 51z m142 -31 c26 -23 28 -29 27 -103 -1
-150 -62 -253 -152 -253 -71 0 -103 75 -82 191 28 155 127 234 207 165z"/>
<path d="M9617 610 c-30 -9 -57 -28 -57 -39 0 -4 15 -5 33 -3 61 7 64 -10 28
-164 -36 -152 -33 -191 15 -213 48 -21 97 -8 172 45 20 15 22 15 22 0 0 -24
37 -56 65 -56 31 0 105 29 105 41 0 5 -15 9 -34 9 -62 0 -64 12 -21 198 21 92
40 173 43 180 3 10 -5 13 -34 10 l-38 -3 -41 -168 -40 -169 -40 -24 c-46 -28
-87 -31 -109 -8 -22 21 -20 45 10 171 32 134 34 171 9 189 -21 15 -46 17 -88
4z"/>
<path d="M10204 597 c-170 -81 -193 -377 -33 -412 29 -6 30 -9 25 -40 -6 -30
-4 -33 24 -38 23 -5 30 -12 30 -31 0 -25 -30 -43 -84 -48 -16 -2 -32 -9 -34
-17 -4 -11 5 -13 47 -8 66 8 101 25 120 59 21 36 3 76 -39 84 -42 9 -38 29 9
42 49 15 137 90 122 105 -8 8 -19 3 -38 -15 -57 -53 -120 -64 -166 -28 -98 77
-24 340 96 340 52 0 61 -11 46 -54 -10 -27 -10 -42 -3 -54 28 -44 84 -13 84
48 0 81 -104 115 -206 67z"/>
<path d="M10605 597 c-94 -46 -148 -133 -149 -242 -3 -215 265 -238 371 -31
35 68 39 180 7 222 -55 74 -141 93 -229 51z m142 -31 c26 -23 28 -29 27 -103
-1 -150 -62 -253 -152 -253 -71 0 -103 75 -82 191 28 155 127 234 207 165z"/>
<path d="M11091 607 c-95 -36 -165 -144 -165 -256 -1 -103 38 -157 121 -168
58 -8 115 12 167 58 25 22 46 45 46 50 0 16 -26 9 -46 -12 -28 -31 -68 -49
-109 -49 -49 0 -74 15 -91 55 -26 64 -22 70 64 88 42 9 97 27 121 39 77 38
104 120 58 174 -19 22 -34 28 -78 30 -30 2 -69 -2 -88 -9z m107 -29 c18 -18
14 -69 -8 -106 -22 -36 -79 -66 -147 -77 l-41 -6 7 33 c21 92 86 168 144 168
18 0 38 -5 45 -12z"/>
<path d="M11453 600 c-116 -52 -107 -184 15 -224 75 -25 92 -41 92 -86 0 -52
-37 -82 -94 -78 -35 3 -43 8 -58 37 -25 49 -42 64 -67 56 -32 -10 -38 -51 -11
-80 32 -34 83 -49 147 -42 92 10 153 67 153 144 0 45 -27 73 -106 109 -78 35
-98 58 -88 99 9 34 41 55 86 55 29 0 38 -4 44 -22 17 -57 66 -76 86 -34 15 34
4 54 -37 71 -47 20 -112 18 -162 -5z"/>
</g>
</svg>
